<svg xmlns="http://www.w3.org/2000/svg" viewBox="0 0 20.54 20"><defs><style>.cls-1{opacity:0.6;}</style></defs><title>Asset 1</title><g id="Layer_2" data-name="Layer 2"><g id="Layer_1-2" data-name="Layer 1"><g class="cls-1"><path d="M20.54,10.27A10.27,10.27,0,1,0,6.93,20a1,1,0,0,0,.53-.76c0-.56,0-2,0-2a7.12,7.12,0,0,1-1.08.08A2.33,2.33,0,0,1,4,15.69a2.78,2.78,0,0,0-1.15-1.37c-.27-.17-.33-.37,0-.43,1.42-.27,1.78,1.6,2.73,1.9a2.67,2.67,0,0,0,2-.16,2,2,0,0,1,.81-1.32c-2.41-.23-3.84-1.06-4.58-2.4l-.08-.15-.19-.43-.05-.15a7.2,7.2,0,0,1-.33-2.33A4,4,0,0,1,4.26,5.91a4.12,4.12,0,0,1,.18-3s1-.22,3,1.19A11,11,0,0,1,12.72,4c.83-.54,2.34-1.32,3-1.1a3.82,3.82,0,0,1,.22,2.73,4.77,4.77,0,0,1,1.29,3.4,8.81,8.81,0,0,1-.26,2.11l-.09.3-.11.28-.07.15c-.72,1.56-2.18,2.15-4.55,2.39.77.48,1,1.08,1,2.72s0,1.85,0,2.23a1,1,0,0,0,.51.75A10.28,10.28,0,0,0,20.54,10.27Z"/></g></g></g></svg>