<svg xmlns="http://www.w3.org/2000/svg" viewBox="0 0 19 22.72"><defs><style>.cls-1{opacity:0.6;}</style></defs><title>Asset 2</title><g id="Layer_2" data-name="Layer 2"><g id="Layer_1-2" data-name="Layer 1"><g class="cls-1"><path d="M18.14.16a1.48,1.48,0,0,0-1.88.45l-.07.1a47,47,0,0,1-4.37,5.87C10.67,8,9.48,9.42,8.4,11a2.12,2.12,0,0,1-.76.53l-.28-.27a2.7,2.7,0,0,1-1-1.59c-.06-.2-.11-.41-.15-.62s-.12-.52-.2-.78-.12-.41-.17-.61A3.72,3.72,0,0,0,5,5.84a2.16,2.16,0,0,0-2.11-.55H2.86a.16.16,0,0,0-.09.08h0a5.51,5.51,0,0,0-.06,2.45,2.33,2.33,0,0,1,0,.59,2,2,0,0,0,0,.7c0,.17.08.32.12.46a2.35,2.35,0,0,1,.13.71,11.77,11.77,0,0,0,.48,1.83,24.48,24.48,0,0,1,.7,2.66,10.27,10.27,0,0,1-.92,3l0,.1a3.31,3.31,0,0,1-.79,1L0,21.21a.16.16,0,0,0,.22.22L1,20.7c2.69-.69,5.11.79,7.53,1.7.53.11,1.06.11,1.6.18l.53.06a.16.16,0,0,0,.13.07l.07,0a11.05,11.05,0,0,0,3.43-2.41l.22-.2A16.76,16.76,0,0,1,17,18.28l0,0a4.13,4.13,0,0,0,1-.77,2.22,2.22,0,0,0-.41-3.16.71.71,0,0,0-.34-.14,1.61,1.61,0,0,0,.09-.33A2.49,2.49,0,0,0,16.72,12a.77.77,0,0,0-.79-.38h0a2.66,2.66,0,0,0-.62-2,.88.88,0,0,0-.68-.4,1.08,1.08,0,0,0-.26,0l-.09-.06.65-.91c1-1.41,2-2.86,2.62-3.73a10.92,10.92,0,0,0,1.31-2.35c0-.09.06-.19.1-.3A1.49,1.49,0,0,0,18.14.16ZM17,14c0-.1,0-.2.05-.29s0,.08,0,.12A1.3,1.3,0,0,1,17,14ZM3.84,17a2.92,2.92,0,0,1-.33.86h0Z"/></g></g></g></svg>